<svg xmlns="http://www.w3.org/2000/svg" version="1.1" xmlns:xlink="http://www.w3.org/1999/xlink" xmlns:svgjs="http://svgjs.dev/svgjs" viewBox="0 0 22.163185183711196 2.151063463431345"><g transform="matrix(1,0,0,1,0.49556297168017593,0.5225532160906724)"><g><path d=" M 0.075439453125 0.5625000000000002 Q 0.075439453125 0.4848632812500002 0.0955810546875 0.4127197265625002 Q 0.11572265625 0.3405761718750002 0.154541015625 0.2783203125000002 Q 0.193359375 0.21606445312500022 0.249755859375 0.16479492187500022 Q 0.30615234375 0.11352539062500022 0.3782958984375 0.07690429687500022 Q 0.450439453125 0.04028320312500022 0.53759765625 0.020141601562500222 Q 0.624755859375 2.220446049250313e-16 0.72509765625 2.220446049250313e-16 Q 0.78955078125 2.220446049250313e-16 0.8485107421875 0.008056640625000222 Q 0.907470703125 0.016113281250000222 0.95947265625 0.030395507812500222 Q 1.011474609375 0.04467773437500022 1.0557861328125 0.06335449218750022 Q 1.10009765625 0.08203125000000022 1.135986328125 0.10253906250000022 L 1.072998046875 0.22558593750000022 Q 1.031982421875 0.20581054687500022 0.9796142578125 0.19226074218750022 Q 0.92724609375 0.17871093750000022 0.870849609375 0.17871093750000022 Q 0.79541015625 0.17871093750000022 0.73095703125 0.20581054687500022 Q 0.66650390625 0.23291015625000022 0.61962890625 0.2827148437500002 Q 0.57275390625 0.3325195312500002 0.5460205078125 0.4031982421875002 Q 0.519287109375 0.4738769531250002 0.519287109375 0.5617675781250002 Q 0.519287109375 0.6489257812500002 0.545654296875 0.7196044921875002 Q 0.572021484375 0.7902832031250002 0.6185302734375 0.8404541015625002 Q 0.6650390625 0.8906250000000002 0.7291259765625 0.9180908203125002 Q 0.793212890625 0.9455566406250002 0.867919921875 0.9455566406250002 L 0.867919921875 0.5771484375000002 L 1.294921875 0.5771484375000002 L 1.21875 0.7155761718750002 L 1.21875 1.0114746093750002 L 1.219482421875 1.0129394531250002 Q 1.18359375 1.0341796875000002 1.130859375 1.0539550781250002 Q 1.078125 1.0737304687500002 1.0133056640625 1.0894775390625002 Q 0.948486328125 1.1052246093750002 0.875244140625 1.1147460937500002 Q 0.802001953125 1.1242675781250002 0.72509765625 1.1242675781250002 Q 0.574951171875 1.1242675781250002 0.4544677734375 1.0799560546875002 Q 0.333984375 1.0356445312500002 0.249755859375 0.9591064453125002 Q 0.16552734375 0.8825683593750002 0.1204833984375 0.7803955078125002 Q 0.075439453125 0.6782226562500002 0.075439453125 0.5625000000000002 M 1.75927734375 0.2922363281250002 L 1.63330078125 0.017578125000000222 L 2.079345703125 0.017578125000000222 L 2.612548828125 1.1066894531250002 L 2.13427734375 1.1066894531250002 L 2.0537109375 0.9323730468750002 L 1.62451171875 0.9323730468750002 L 1.544677734375 1.1066894531250002 L 1.359375 1.1066894531250002 L 1.75927734375 0.2922363281250002 M 1.976806640625 0.7646484375000002 L 1.839111328125 0.4658203125000002 L 1.7021484375 0.7646484375000002 L 1.976806640625 0.7646484375000002 M 2.761962890625 0.017578125000000222 L 3.3896484375 0.017578125000000222 Q 3.51123046875 0.017578125000000222 3.6024169921875 0.04321289062500022 Q 3.693603515625 0.06884765625000022 3.7547607421875 0.11499023437500022 Q 3.81591796875 0.16113281250000022 3.8466796875 0.22558593750000022 Q 3.87744140625 0.2900390625000002 3.87744140625 0.3676757812500002 Q 3.87744140625 0.4636230468750002 3.83203125 0.5379638671875002 Q 3.78662109375 0.6123046875000002 3.697265625 0.6562500000000002 L 3.92578125 1.1066894531250002 L 3.447509765625 1.1066894531250002 L 3.274658203125 0.7111816406250002 L 3.185302734375 0.7111816406250002 L 3.185302734375 1.1059570312500002 L 2.761962890625 1.1059570312500002 L 2.761962890625 0.017578125000000222 M 3.2109375 0.5786132812500002 Q 3.262939453125 0.5786132812500002 3.303955078125 0.5639648437500002 Q 3.344970703125 0.5493164062500002 3.37353515625 0.5225830078125002 Q 3.402099609375 0.4958496093750002 3.41748046875 0.4588623046875002 Q 3.432861328125 0.4218750000000002 3.432861328125 0.3779296875000002 Q 3.432861328125 0.3339843750000002 3.41748046875 0.2969970703125002 Q 3.402099609375 0.2600097656250002 3.37353515625 0.23327636718750022 Q 3.344970703125 0.20654296875000022 3.303955078125 0.19189453125000022 Q 3.262939453125 0.17724609375000022 3.2109375 0.17724609375000022 L 3.18603515625 0.17724609375000022 L 3.185302734375 0.5786132812500002 L 3.2109375 0.5786132812500002 M 4.428955078125 0.2922363281250002 L 4.302978515625 0.017578125000000222 L 4.7490234375 0.017578125000000222 L 5.2822265625 1.1066894531250002 L 4.803955078125 1.1066894531250002 L 4.723388671875 0.9323730468750002 L 4.294189453125 0.9323730468750002 L 4.21435546875 1.1066894531250002 L 4.029052734375 1.1066894531250002 L 4.428955078125 0.2922363281250002 M 4.646484375 0.7646484375000002 L 4.5087890625 0.4658203125000002 L 4.371826171875 0.7646484375000002 L 4.646484375 0.7646484375000002 M 5.367919921875 0.5625000000000002 Q 5.367919921875 0.4848632812500002 5.3880615234375 0.4127197265625002 Q 5.408203125 0.3405761718750002 5.447021484375 0.2783203125000002 Q 5.48583984375 0.21606445312500022 5.542236328125 0.16479492187500022 Q 5.5986328125 0.11352539062500022 5.6707763671875 0.07690429687500022 Q 5.742919921875 0.04028320312500022 5.830078125 0.020141601562500222 Q 5.917236328125 2.220446049250313e-16 6.017578125 2.220446049250313e-16 Q 6.08203125 2.220446049250313e-16 6.1409912109375 0.008056640625000222 Q 6.199951171875 0.016113281250000222 6.251953125 0.030395507812500222 Q 6.303955078125 0.04467773437500022 6.3482666015625 0.06335449218750022 Q 6.392578125 0.08203125000000022 6.428466796875 0.10253906250000022 L 6.365478515625 0.22558593750000022 Q 6.324462890625 0.20581054687500022 6.2720947265625 0.19226074218750022 Q 6.2197265625 0.17871093750000022 6.163330078125 0.17871093750000022 Q 6.087890625 0.17871093750000022 6.0234375 0.20581054687500022 Q 5.958984375 0.23291015625000022 5.912109375 0.2827148437500002 Q 5.865234375 0.3325195312500002 5.8385009765625 0.4031982421875002 Q 5.811767578125 0.4738769531250002 5.811767578125 0.5617675781250002 Q 5.811767578125 0.6489257812500002 5.838134765625 0.7196044921875002 Q 5.864501953125 0.7902832031250002 5.9110107421875 0.8404541015625002 Q 5.95751953125 0.8906250000000002 6.0216064453125 0.9180908203125002 Q 6.085693359375 0.9455566406250002 6.160400390625 0.9455566406250002 L 6.160400390625 0.5771484375000002 L 6.58740234375 0.5771484375000002 L 6.51123046875 0.7155761718750002 L 6.51123046875 1.0114746093750002 L 6.511962890625 1.0129394531250002 Q 6.47607421875 1.0341796875000002 6.42333984375 1.0539550781250002 Q 6.37060546875 1.0737304687500002 6.3057861328125 1.0894775390625002 Q 6.240966796875 1.1052246093750002 6.167724609375 1.1147460937500002 Q 6.094482421875 1.1242675781250002 6.017578125 1.1242675781250002 Q 5.867431640625 1.1242675781250002 5.7469482421875 1.0799560546875002 Q 5.62646484375 1.0356445312500002 5.542236328125 0.9591064453125002 Q 5.4580078125 0.8825683593750002 5.4129638671875 0.7803955078125002 Q 5.367919921875 0.6782226562500002 5.367919921875 0.5625000000000002 M 6.750732421875 0.017578125000000222 L 7.670654296875 0.017578125000000222 L 7.670654296875 0.18530273437500022 L 7.1748046875 0.18530273437500022 L 7.174072265625 0.4790039062500002 L 7.553466796875 0.4790039062500002 L 7.553466796875 0.6467285156250002 L 7.174072265625 0.6467285156250002 L 7.174072265625 0.9382324218750002 L 7.670654296875 0.9382324218750002 L 7.670654296875 1.1059570312500002 L 6.750732421875 1.1059570312500002 L 6.750732421875 0.017578125000000222 M 8.23388671875 0.017578125000000222 L 8.697509765625 0.017578125000000222 L 8.952392578125 0.7170410156250002 L 9.188232421875 0.017578125000000222 L 9.37939453125 0.016845703125000222 L 8.997802734375 1.1059570312500002 L 8.65283203125 1.1052246093750002 L 8.23388671875 0.017578125000000222 M 9.520751953125 0.9521484375000002 Q 9.520751953125 0.9177246093750002 9.5335693359375 0.8873291015625002 Q 9.54638671875 0.8569335937500002 9.5738525390625 0.8345947265625002 Q 9.601318359375 0.8122558593750002 9.643798828125 0.7990722656250002 Q 9.686279296875 0.7858886718750002 9.746337890625 0.7858886718750002 Q 9.8056640625 0.7858886718750002 9.8485107421875 0.7990722656250002 Q 9.891357421875 0.8122558593750002 9.91845703125 0.8345947265625002 Q 9.945556640625 0.8569335937500002 9.9583740234375 0.8873291015625002 Q 9.97119140625 0.9177246093750002 9.97119140625 0.9521484375000002 Q 9.97119140625 0.9873046875000002 9.9583740234375 1.0177001953125002 Q 9.945556640625 1.0480957031250002 9.91845703125 1.0704345703125002 Q 9.891357421875 1.0927734375000002 9.8485107421875 1.1059570312500002 Q 9.8056640625 1.1191406250000002 9.746337890625 1.1191406250000002 Q 9.686279296875 1.1191406250000002 9.643798828125 1.1059570312500002 Q 9.601318359375 1.0927734375000002 9.5738525390625 1.0704345703125002 Q 9.54638671875 1.0480957031250002 9.5335693359375 1.0177001953125002 Q 9.520751953125 0.9873046875000002 9.520751953125 0.9521484375000002 M 10.697021484375 0.017578125000000222 L 11.220703125 0.017578125000000222 Q 11.36572265625 0.016845703125000222 11.4708251953125 0.04284667968750022 Q 11.575927734375 0.06884765625000022 11.64404296875 0.11718750000000022 Q 11.712158203125 0.16552734375000022 11.7447509765625 0.23327636718750022 Q 11.77734375 0.3010253906250002 11.77734375 0.3837890625000002 Q 11.77734375 0.4562988281250002 11.7469482421875 0.5225830078125002 Q 11.716552734375 0.5888671875000002 11.6531982421875 0.6394042968750002 Q 11.58984375 0.6899414062500002 11.4920654296875 0.7199707031250002 Q 11.394287109375 0.7500000000000002 11.259521484375 0.7500000000000002 L 11.120361328125 0.7500000000000002 L 11.120361328125 1.1059570312500002 L 10.697021484375 1.1059570312500002 L 10.697021484375 0.017578125000000222 M 11.120361328125 0.5903320312500002 Q 11.1708984375 0.5895996093750002 11.21044921875 0.5745849609375002 Q 11.25 0.5595703125000002 11.277099609375 0.5328369140625002 Q 11.30419921875 0.5061035156250002 11.3184814453125 0.4683837890625002 Q 11.332763671875 0.4306640625000002 11.332763671875 0.3837890625000002 Q 11.332763671875 0.3376464843750002 11.318115234375 0.3002929687500002 Q 11.303466796875 0.2629394531250002 11.2760009765625 0.23620605468750022 Q 11.24853515625 0.20947265625000022 11.2093505859375 0.19409179687500022 Q 11.170166015625 0.17871093750000022 11.120361328125 0.17724609375000022 L 11.120361328125 0.5903320312500002 M 12.25341796875 0.2922363281250002 L 12.12744140625 0.017578125000000222 L 12.573486328125 0.017578125000000222 L 13.106689453125 1.1066894531250002 L 12.62841796875 1.1066894531250002 L 12.5478515625 0.9323730468750002 L 12.11865234375 0.9323730468750002 L 12.038818359375 1.1066894531250002 L 11.853515625 1.1066894531250002 L 12.25341796875 0.2922363281250002 M 12.470947265625 0.7646484375000002 L 12.333251953125 0.4658203125000002 L 12.1962890625 0.7646484375000002 L 12.470947265625 0.7646484375000002 M 13.256103515625 0.017578125000000222 L 13.8837890625 0.017578125000000222 Q 14.00537109375 0.017578125000000222 14.0965576171875 0.04321289062500022 Q 14.187744140625 0.06884765625000022 14.2489013671875 0.11499023437500022 Q 14.31005859375 0.16113281250000022 14.3408203125 0.22558593750000022 Q 14.37158203125 0.2900390625000002 14.37158203125 0.3676757812500002 Q 14.37158203125 0.4636230468750002 14.326171875 0.5379638671875002 Q 14.28076171875 0.6123046875000002 14.19140625 0.6562500000000002 L 14.419921875 1.1066894531250002 L 13.941650390625 1.1066894531250002 L 13.768798828125 0.7111816406250002 L 13.679443359375 0.7111816406250002 L 13.679443359375 1.1059570312500002 L 13.256103515625 1.1059570312500002 L 13.256103515625 0.017578125000000222 M 13.705078125 0.5786132812500002 Q 13.757080078125 0.5786132812500002 13.798095703125 0.5639648437500002 Q 13.839111328125 0.5493164062500002 13.86767578125 0.5225830078125002 Q 13.896240234375 0.4958496093750002 13.91162109375 0.4588623046875002 Q 13.927001953125 0.4218750000000002 13.927001953125 0.3779296875000002 Q 13.927001953125 0.3339843750000002 13.91162109375 0.2969970703125002 Q 13.896240234375 0.2600097656250002 13.86767578125 0.23327636718750022 Q 13.839111328125 0.20654296875000022 13.798095703125 0.19189453125000022 Q 13.757080078125 0.17724609375000022 13.705078125 0.17724609375000022 L 13.68017578125 0.17724609375000022 L 13.679443359375 0.5786132812500002 L 13.705078125 0.5786132812500002 M 14.6220703125 0.017578125000000222 L 15.249755859375 0.017578125000000222 Q 15.371337890625 0.017578125000000222 15.4625244140625 0.04321289062500022 Q 15.5537109375 0.06884765625000022 15.6148681640625 0.11499023437500022 Q 15.676025390625 0.16113281250000022 15.706787109375 0.22558593750000022 Q 15.737548828125 0.2900390625000002 15.737548828125 0.3676757812500002 Q 15.737548828125 0.4636230468750002 15.692138671875 0.5379638671875002 Q 15.646728515625 0.6123046875000002 15.557373046875 0.6562500000000002 L 15.785888671875 1.1066894531250002 L 15.3076171875 1.1066894531250002 L 15.134765625 0.7111816406250002 L 15.04541015625 0.7111816406250002 L 15.04541015625 1.1059570312500002 L 14.6220703125 1.1059570312500002 L 14.6220703125 0.017578125000000222 M 15.071044921875 0.5786132812500002 Q 15.123046875 0.5786132812500002 15.1640625 0.5639648437500002 Q 15.205078125 0.5493164062500002 15.233642578125 0.5225830078125002 Q 15.26220703125 0.4958496093750002 15.277587890625 0.4588623046875002 Q 15.29296875 0.4218750000000002 15.29296875 0.3779296875000002 Q 15.29296875 0.3339843750000002 15.277587890625 0.2969970703125002 Q 15.26220703125 0.2600097656250002 15.233642578125 0.23327636718750022 Q 15.205078125 0.20654296875000022 15.1640625 0.19189453125000022 Q 15.123046875 0.17724609375000022 15.071044921875 0.17724609375000022 L 15.046142578125 0.17724609375000022 L 15.04541015625 0.5786132812500002 L 15.071044921875 0.5786132812500002 M 15.92431640625 0.5595703125000002 Q 15.92431640625 0.4357910156250002 15.9638671875 0.3328857421875002 Q 16.00341796875 0.22998046875000022 16.081787109375 0.15600585937500022 Q 16.16015625 0.08203125000000022 16.27734375 0.04101562500000022 Q 16.39453125 2.220446049250313e-16 16.5498046875 2.220446049250313e-16 Q 16.705078125 2.220446049250313e-16 16.822265625 0.04101562500000022 Q 16.939453125 0.08203125000000022 17.017822265625 0.15600585937500022 Q 17.09619140625 0.22998046875000022 17.1357421875 0.3328857421875002 Q 17.17529296875 0.4357910156250002 17.17529296875 0.5595703125000002 Q 17.17529296875 0.6848144531250002 17.1357421875 0.7888183593750002 Q 17.09619140625 0.8928222656250002 17.017822265625 0.9667968750000002 Q 16.939453125 1.0407714843750002 16.822265625 1.0817871093750002 Q 16.705078125 1.1228027343750002 16.5498046875 1.1228027343750002 Q 16.39453125 1.1228027343750002 16.27734375 1.0817871093750002 Q 16.16015625 1.0407714843750002 16.081787109375 0.9667968750000002 Q 16.00341796875 0.8928222656250002 15.9638671875 0.7888183593750002 Q 15.92431640625 0.6848144531250002 15.92431640625 0.5595703125000002 M 16.5498046875 0.9711914062500002 Q 16.59375 0.9711914062500002 16.62744140625 0.9558105468750002 Q 16.6611328125 0.9404296875000002 16.683837890625 0.8957519531250002 Q 16.70654296875 0.8510742187500002 16.71826171875 0.7705078125000002 Q 16.72998046875 0.6899414062500002 16.72998046875 0.5595703125000002 Q 16.72998046875 0.4306640625000002 16.71826171875 0.3508300781250002 Q 16.70654296875 0.2709960937500002 16.683837890625 0.22705078125000022 Q 16.6611328125 0.18310546875000022 16.62744140625 0.16772460937500022 Q 16.59375 0.15234375000000022 16.5498046875 0.15234375000000022 Q 16.505859375 0.15234375000000022 16.4718017578125 0.16772460937500022 Q 16.437744140625 0.18310546875000022 16.4150390625 0.22705078125000022 Q 16.392333984375 0.2709960937500002 16.380615234375 0.3508300781250002 Q 16.368896484375 0.4306640625000002 16.368896484375 0.5595703125000002 Q 16.368896484375 0.6899414062500002 16.380615234375 0.7705078125000002 Q 16.392333984375 0.8510742187500002 16.4150390625 0.8957519531250002 Q 16.437744140625 0.9404296875000002 16.4718017578125 0.9558105468750002 Q 16.505859375 0.9711914062500002 16.5498046875 0.9711914062500002 M 17.5810546875 0.18457031250000022 L 17.2705078125 0.18457031250000022 L 17.2705078125 0.016845703125000222 L 18.31494140625 0.016845703125000222 L 18.31494140625 0.18457031250000022 L 18.00439453125 0.18457031250000022 L 18.00439453125 1.1059570312500002 L 17.5810546875 1.1059570312500002 L 17.5810546875 0.18457031250000022" fill="#ffffff" fill-rule="nonzero"></path></g><g></g><g clip-path="url(#SvgjsClipPath1001)"><g clip-path="url(#SvgjsClipPath1000b48068b6-7fa5-4fa9-af8f-a10416d68097)"><path d=" M 19.045619475460608 0.11771881039378548 C 19.074364440041126 0.09415117526866813 19.161179086820663 0.02343478726452599 19.290544910061797 0.007909540212710987 C 19.41991073330293 -0.007615706839104022 19.834434155454954 -0.00129235393654107 19.990246155067894 0.013080128353719286 C 20.14605815468083 0.027452610643979643 20.198377495700864 0.056777328262475196 20.198377495700864 0.056777328262475196 C 20.228588092778303 0.0858814238175388 20.257003350882123 0.11679331646716243 20.283466365995267 0.14934231622099509 C 20.267264579176672 0.10751846859860587 20.24272280273504 0.06942825538681854 20.211334301968165 0.03738930806229282 C 20.209527629710287 0.03551522266046715 20.152219716037912 0.002031114060221769 19.992915715568333 -0.012664951321001287 C 19.90151697500016 -0.02109833562921691 19.721085695216473 -0.026990244410496248 19.55416400948048 -0.026990244410496248 C 19.431546241948798 -0.026990244410496248 19.33671617235354 -0.023713965614498813 19.28705290920516 -0.017754643689268913 C 19.194037970282075 -0.00621477348102711 19.106515166705407 0.032582350837923726 19.035500762553628 0.09375343771935978 L 19.03393003629958 0.09504777008321065 C 19.01186571428456 0.1131414579195422 18.986410511128827 0.1398370629239657 18.9738986316116 0.1497737603422789 C 18.9738986316116 0.1497737603422789 18.874288970110246 0.17996136620334172 18.853161690796142 0.20927934250744218 C 18.89433701456968 0.19145258118212471 18.937846019637824 0.17959412433045305 18.982372463806186 0.17406271610766727 C 19.02689890797455 0.1685313078848815 19.016874510880086 0.1412931868332979 19.045619475460608 0.11771881039378548 Z M 19.380170684944073 0.31681678973738264 C 19.393248834870484 0.3190211995445661 19.396889144643815 0.32086157837441653 19.40376528532677 0.3221019802231069 C 19.40376528532677 0.3221019802231069 19.4003137323565 0.16399119240145293 19.398587955871367 0.12317253373938614 C 19.397145314590826 0.08904125895721535 19.397435191109814 0.06970716927219345 19.35374473251545 0.06223105160807585 C 19.316755140429777 0.05590095739111785 19.247649926566055 0.047521503598062675 19.2046335994112 0.05555715035696997 C 19.19036897815126 0.09351075040113778 19.138926008002585 0.21519147523190665 19.13151056216802 0.2381860986334442 C 19.13151056216802 0.2381860986334442 19.13180043868701 0.24980138333612645 19.132380191724984 0.2622525910237958 C 19.18863646035173 0.272667921764158 19.279617239427413 0.2942266451995485 19.35842320470562 0.3132101865360274 C 19.356286208042388 0.30776994581921685 19.346403441139234 0.2886313542516516 19.343046266570497 0.2822742947771134 C 19.326168366277756 0.292395791687841 19.30437740384432 0.28819125001409873 19.292476770181178 0.27251696736954467 C 19.28057613651804 0.25684268472499067 19.282380761505088 0.23472329180570556 19.296664697953776 0.22118529426044709 C 19.310948634402468 0.20764729671518858 19.333132948324653 0.20703050642383264 19.348147030880302 0.21975393139582056 C 19.36316111343595 0.23247735636780842 19.366191971150762 0.25446230840264755 19.3551806324816 0.270773612419147 C 19.3603647032514 0.27961147559106614 19.374339447992348 0.304325134163343 19.380170684944073 0.31681678973738264 Z M 19.066254638823875 0.18126918119598262 C 19.049293491805912 0.2217170675663213 19.058347077038473 0.1879161171895083 19.10116116476148 0.25360348465493837 L 19.18191536989986 0.061159182619261884 C 19.18150414972176 0.061334456793533346 19.18106596428608 0.06149624833901471 19.180668226736774 0.06168500514207628 C 19.129648349222975 0.08684329074682828 19.089134722819825 0.12918781223901993 19.066254638823875 0.18126918119598268 Z M 19.508990461719208 0.5276985866435386 L 18.97605585221802 0.4063414449037323 L 19.487283429367125 0.5647623331875589 C 19.49297422860107 0.5515655546703253 19.50026449423343 0.5391177657117169 19.508990461719208 0.5276985866435384 Z M 18.988985693227736 0.45549910947248395 L 19.472830051304125 0.6069225134142419 C 19.476102177877394 0.5939520978277423 19.480329280270936 0.5812414983597384 19.48547675710925 0.5688947589117282 Z M 19.462994473601736 0.7031547764036727 L 19.03814335779649 0.600383438451037 L 19.467733617621462 0.7453216979447508 C 19.465181411383536 0.7313924562332923 19.463597900829466 0.7173030415594424 19.462994473601736 0.7031547764036727 Z M 19.471542460254668 0.6121874799567809 L 18.99933361082415 0.5012052210709667 L 19.464801145859614 0.6510174508723061 C 19.466268796285764 0.6379508310054517 19.468519954504888 0.6249841596632842 19.471542460254668 0.6121874799567815 Z M 19.464207910192847 0.6569565488543508 L 19.018310410846233 0.549499997397151 L 19.462778751541094 0.6970269216185664 C 19.462452281969366 0.683653856991255 19.462925016049425 0.6702732314109786 19.464194427564056 0.6569565488543503 Z M 19.46886615843983 0.7510652978093388 L 19.061427857717014 0.6521297677474904 L 19.483002694726263 0.7973713863889815 C 19.47680905547724 0.7824259661850814 19.472068277377016 0.7669191067705801 19.468845934496645 0.751065297809339 Z M 21.156594665128583 0.9684524631067244 C 21.13847401203467 0.9616235116245322 21.071202435686402 0.9369840075106007 21.052191929092345 0.9300674189412729 C 21.078307781058793 0.9098030278697332 21.038951987620454 0.8823928435394337 21.038951987620454 0.8823928435394337 C 21.038439647726427 0.8842399636836791 21.062202780969002 0.9045448026415892 21.00763184094102 0.9174881262800975 C 20.93258752909525 0.9352851962830464 20.74401274152234 0.9521452235850827 20.665813494539684 0.9617313726548528 C 20.440013168877268 0.9894112095609549 20.028193013797665 0.98587201950355 19.950560037224193 0.9847327373707855 L 19.89507901975288 0.9434421867010648 C 19.89507901975288 0.9434421867010648 20.6525668117534 0.9510194240811082 21.012188969472078 0.8597892163728094 L 21.01291029011235 0.8596072008841429 L 21.01276198119566 0.8594993398538221 C 21.01276198119566 0.8594993398538221 21.053007628134147 0.810631551804058 21.064508310492112 0.7968051159797971 C 21.073860271389854 0.7845925729408606 21.082315759324803 0.7717189630127222 21.08980846341676 0.7582852455264448 C 21.097301167508714 0.7448515280401674 21.10063501433522 0.7140082925797138 21.096704828042903 0.6990627985658737 C 21.093572795709708 0.6919778831415163 21.089718872498604 0.6852346470423649 21.085204145684937 0.6789399750966302 C 21.08068941887127 0.6726453031508954 21.084058122237778 0.5271592814919343 21.08060656926751 0.48344185763999314 C 21.08060656926751 0.48344185763999314 21.043981008159165 0.44396472054254266 20.821854698842056 0.37294497339062294 C 20.618658000346265 0.3080530810238093 20.474744420640597 0.3080530810238093 20.474744420640597 0.3080530810238093 C 20.474744420640597 0.3080530810238093 20.792152467617438 0.36779460919279955 20.983039526027856 0.46242918067060196 C 20.9907170065329 0.46623329464276725 20.994907190467437 0.4746975996355769 20.993277077430314 0.4831093605395015 C 20.99164696439319 0.4915211214434263 20.984598259839093 0.4978074450531038 20.976055524314578 0.4984682474265737 C 20.94489042786623 0.5008614140368188 20.9092019094588 0.5035916463668166 20.872515676520905 0.506389291840765 L 20.872515676520905 0.4770578329078744 C 20.872515676520905 0.4770578329078744 20.735943388191455 0.39139595088989215 20.491017953590266 0.3384968568318842 C 20.491017953590266 0.3384968568318842 20.78182477396421 0.4431625041295306 20.82562983490329 0.4814801351510315 C 20.76685231469279 0.48677880826554587 20.66451242086144 0.4951515207442061 20.58789738276162 0.4968975211725256 C 20.474056806572303 0.49947944458583216 20.223960783830105 0.4960346329299584 20.223960783830105 0.4960346329299584 C 19.964372990419665 0.37184613914422854 19.643776301733965 0.3045813041103553 19.643776301733965 0.3045813041103553 C 19.643776301733965 0.3045813041103553 19.802460101279202 0.2950962747565108 19.823162677786417 0.2950962747565108 C 19.843865254293636 0.2950962747565108 19.95165887147059 0.2787081394621286 20.04738553588039 0.2812968041898303 C 20.06318043550801 0.28172150699671883 20.080417976416168 0.2825034994665454 20.098107185388795 0.2835079553114088 L 20.098477957680522 0.30327348911771435 L 20.09890940180181 0.3310139978533716 L 20.078645010730266 0.3030914736290478 C 20.022596095418884 0.3039093942834696 19.966676763771417 0.3087214034849434 19.911312104816176 0.31749092117688826 C 20.025076285906323 0.3373559503267779 20.13629274548606 0.36974962069713274 20.242930842537795 0.41408047382925744 C 20.34956893958953 0.45841132696138215 20.51027788881694 0.40257979147129075 20.56374999459853 0.40747398572210175 C 20.56374999459853 0.40747398572210175 20.45077230665178 0.34943801009506076 20.330898254078885 0.3278590627164851 L 20.33143755923049 0.3079721852510685 L 20.371656240911395 0.3063003392810945 C 20.371656240911395 0.3063003392810945 20.368332772914634 0.30206679384099905 20.362589173050043 0.2947861742943381 L 20.447529734427757 0.2916177565286616 C 20.460478391990115 0.2911377209747757 20.47080130380866 0.28063438003848584 20.471056921666502 0.2676793491118162 L 20.472405184545515 0.20114931734700403 C 20.47262388428661 0.19032574551406814 20.46436276118853 0.18121012543125478 20.453569952125726 0.18036584506704503 C 20.414942220642054 0.17729854701729436 20.31869647502383 0.17152124058073093 20.170508901991703 0.17476381280475312 L 20.03338382588186 0.20105493894547327 C 20.048336061210094 0.1843836684464987 20.123043307336108 0.15904306763548148 20.146637907718805 0.1532994677708934 C 20.162817062266942 0.14935579884978537 20.21457013287779 0.1500029650317108 20.245573437780656 0.15080518144472252 C 20.211192734365866 0.10882701670670597 20.189964335335834 0.08236061639171438 20.184557801190998 0.08033148075880238 C 20.17165492543886 0.07549121702315185 20.057639075075272 0.05362913443998378 19.851718885563876 0.054795381830328546 L 19.75721239905958 0.05639981465635198 C 19.554784210404826 0.061280526278372854 19.444765959477504 0.0696330148138478 19.43598876813514 0.0760237808603613 C 19.426496997466902 0.08292014548650407 19.4584103798131 0.3269826918451277 19.4584103798131 0.3269826918451277 L 19.627442096954745 0.3278455800876949 C 19.627442096954745 0.3278455800876949 19.859781497580364 0.3660620913932699 20.20247621485306 0.5132317259517473 C 20.215520658207492 0.5188337582140392 20.213363437601075 0.5250492500862813 20.207640061679673 0.5299838922234625 C 20.057268302783545 0.5315478771631157 19.921336439321625 0.5337927348566694 19.91816802155595 0.5374869751451604 C 19.911264915615412 0.5455361045328578 19.89977097457184 0.6754681981831758 19.89977097457184 0.6754681981831758 L 19.89430376859745 0.7489485250892911 C 19.877632498098475 0.6925978780610144 19.879931286307187 0.5649645726194105 19.88510861576259 0.5379453845240243 C 19.88599493009624 0.5314644387559969 19.88980694257449 0.525748905053273 19.89544979204461 0.5224403614153945 C 19.82474014535486 0.4830104135187093 19.709173792680406 0.44678933127407106 19.629842004879382 0.42091616662584436 C 19.435611254529018 0.35769612022900493 18.925172411164134 0.2588414859398972 18.925172411164134 0.2588414859398972 C 18.925172411164134 0.2588414859398972 19.405531509698275 0.385645609710909 19.558646983553192 0.44557589468296077 L 18.945436802235673 0.3096103246490673 L 19.553847167703914 0.4911741452511227 L 18.963692281617487 0.3589095568201151 L 19.510985890780145 0.5252177829461577 C 19.516410923433337 0.5185096496526046 19.52271189435709 0.5125601182729987 19.529720003484005 0.5075285739735296 C 19.559477809592842 0.4874418924506638 19.597145240793026 0.4830817238457832 19.63070489312195 0.49583913481250164 C 19.647295267848186 0.501825421995312 19.768901838220607 0.5512257738822854 19.765214339246512 0.740912878330384 C 19.748684636349836 0.6906091903144727 19.727516909149358 0.632377716569975 19.701340385353355 0.5977947737233354 C 19.660171178342743 0.5433654012976497 19.590661485615318 0.5121328917053533 19.532665957874645 0.5483539739499914 C 19.493337129693884 0.5729125822911821 19.475728816493998 0.6378921117451312 19.48067694125997 0.7237157853085948 C 19.48539586133651 0.806013751443444 19.512415049431894 0.8399427867937632 19.52837848191939 0.8528254386027162 L 19.471940197803978 0.8289207377578459 C 19.471940197803978 0.8289207377578459 19.072638663555992 0.6909395147198305 19.05798304606114 0.6745446381110534 C 19.031253734484743 0.6446806153409531 19.01313308139083 0.6098684678048816 18.97561766678234 0.4835294947271287 C 18.97546935786565 0.4830104135187093 18.975327790263353 0.4825115562534752 18.97518622266106 0.4819924750450558 C 18.979199399225358 0.5036398711772334 18.981500813973845 0.5255698066209381 18.98206910465841 0.5475787227945603 C 18.984475753897446 0.6301800480771866 18.964494498030497 0.6977819488308127 18.937455085991925 0.6985841652438244 C 18.910415673953356 0.6993863816568361 18.886537938366065 0.6330518480094807 18.88413128912703 0.550450522726854 C 18.882601010759352 0.4977604094150928 18.89019847208258 0.451204892202833 18.902885625774076 0.4241722214786566 C 18.893620406796835 0.4597326811565814 18.890010073887034 0.4965298675561035 18.89218715982912 0.5332129818186948 C 18.894823013757588 0.5936421240559806 18.909242685248614 0.6452334031213477 18.928077917668404 0.6697583048905629 C 18.91651656348088 0.6403998807000922 18.908905619528863 0.5986037314507422 18.906438298460273 0.5518594574354208 C 18.9019013938724 0.46591444021284617 18.923473599936578 0.42624180499793896 18.923473599936578 0.42624180499793896 C 18.91579058580873 0.4603957836741859 18.912460887375342 0.495384798436451 18.913563867775846 0.5303748884583759 C 18.916199721704313 0.5907972893812667 18.93061939319534 0.6423885684466338 18.949454625615125 0.6669134702158492 C 18.93633062363334 0.628929386447213 18.929034695277096 0.5891768048426508 18.927815006406995 0.5490078814463121 C 18.925475770311913 0.401521405111267 18.96236424268166 0.4478881655204653 18.964568652488843 0.4515352166081908 C 18.941574029087306 0.379672805156889 18.915700864439078 0.3411529347035364 18.87601474659538 0.35287608043653956 C 18.8507617828715 0.36033197415747203 18.84837535757565 0.4047235294489187 18.852561713814982 0.44897351713806927 C 18.853138961279598 0.45520131598979885 18.84955126136447 0.46106704486530486 18.84374410962235 0.4633899055621541 C 18.837936957880228 0.46571276625900354 18.831293638027546 0.4639394452906199 18.82741661112142 0.4590315582154935 C 18.820419126779353 0.45013302321401905 18.81429801330864 0.44205692856874135 18.81071163405047 0.4366706183670912 C 18.797559329665713 0.41694553244715604 18.794276309555322 0.36544189046892483 18.799750256844106 0.32490636701145037 C 18.805224204132895 0.284370843553976 18.815093488407257 0.23832766623574042 18.815093488407257 0.23832766623574042 C 18.759963019284484 0.30641494162581057 18.76967725332776 0.40522912802854794 18.77296701475255 0.4326258297300574 C 18.7756230926242 0.4547710475178178 18.84594848439343 0.5230538210253446 18.86881502282146 0.5510100518216436 C 18.869165571170004 0.5540301606706288 18.869414999802622 0.5567536516862318 18.869543084776126 0.5589850267509955 C 18.87091527467137 0.593298345949291 18.876028502065314 0.6273594027008157 18.884791937937745 0.6605631520557069 L 18.74826009749467 0.6661382190604177 C 18.741667091837844 0.6664442654866866 18.73615357078165 0.6712514182550438 18.73495210808713 0.6777412468660016 C 18.73375064539261 0.6842310754769594 18.737177842349737 0.6906934243682293 18.74322433564156 0.6933394226444705 C 18.895975778519144 0.7603008985305663 19.345628189983803 0.9623178670072227 19.607420393201426 1.0714664883775817 C 19.70152466308093 1.108928745833014 19.80144972896464 1.1296643377009832 19.902689963704898 1.13273829491425 C 20.15929809615272 1.1356707666760992 20.70135370403042 1.1082336170882194 21.15300154455602 1.0143271075650833 C 21.163403505017783 1.0121343620380514 21.17111782205855 1.0033512450900484 21.17195007183946 0.992753307805059 C 21.172782321620367 0.982155370520069 21.166533578947654 0.9722757427063312 21.156601406442977 0.9684861696786993 Z M 20.99817377684476 0.5266941307986751 C 21.00185025649834 0.5228155589805683 21.006959432784978 0.5206187798182736 21.012303571816794 0.5206187798182736 C 21.017647710848614 0.5206187798182736 21.02275688713525 0.5228155589805683 21.026433366788833 0.5266941307986751 C 21.038407277566574 0.5395058592633861 21.044833229404603 0.556530270128392 21.044311332564526 0.5740586057383418 C 21.04434840091321 0.5828494066871144 21.04285422410648 0.5915795053731558 21.039895771635763 0.5998576159282224 C 21.04608679403848 0.5888253842093081 21.049271577752798 0.5763605591901957 21.04913137235699 0.56371068814193 C 21.049167204985885 0.5549199895980801 21.04767306445891 0.5461901028854899 21.044715811428226 0.5379116779520475 C 21.050905061399714 0.5489446191014137 21.05408972203967 0.5614089624236408 21.053951412149456 0.5740586057383417 C 21.053988480498145 0.5828494066871144 21.052494303691415 0.5915795053731558 21.049535851220693 0.5998576159282224 C 21.05572687362341 0.5888253842093081 21.05891165733773 0.5763605591901957 21.058771451941922 0.56371068814193 C 21.05887431413541 0.5520309238046718 21.056179050577466 0.5404963053191323 21.050911079357284 0.5300715293105989 C 21.060789222749673 0.5425743365026511 21.066002460446228 0.558128234980027 21.06565433393927 0.5740586057383418 C 21.06565433393927 0.606207934088366 21.04654270762929 0.6322698555396542 21.022968331189777 0.6322698555396542 C 20.999393954750264 0.6322698555396542 20.98027558712588 0.606207934088366 20.98027558712588 0.5740586057383418 C 20.979764986528565 0.556525907833615 20.986202983961363 0.5395016812762817 20.998187259473546 0.526694130798675 Z M 20.985506847096445 0.7217608041340287 C 20.98100714924996 0.7217738860054115 20.976602510636603 0.7230567223973128 20.972799469461766 0.7254617857369147 C 20.978426924257686 0.7191255897386447 20.986464182315 0.7154544913568015 20.99493794593513 0.71534981414433 C 21.012957479313116 0.71534981414433 21.027565907607205 0.7324188221926128 21.027565907607205 0.7534786883627693 C 21.027565907607205 0.7745385545329256 21.012957479313116 0.7916075625812086 20.99493794593513 0.7916075625812086 C 20.986464931341292 0.7914995437469537 20.97842895952245 0.787829032867458 20.972799469461766 0.7814955909886239 C 20.976603721505537 0.7838979681098163 20.981007570098615 0.7851805744109304 20.985506847096445 0.78519657259151 C 21.000486047682262 0.78519657259151 21.012627154907758 0.771006105789916 21.012627154907758 0.7535123949347446 C 21.012627154907758 0.7360186840795732 21.00047256505347 0.7217608041340285 20.985520329725237 0.7217608041340285 Z M 20.89814615385091 0.534453383667385 C 20.901823622545304 0.5305766042800373 20.90693242990594 0.5283810886754475 20.91227594882295 0.5283810886754475 C 20.917619467739954 0.5283810886754475 20.922728275100592 0.5305766042800373 20.926405743794987 0.534453383667385 C 20.938380688644834 0.5472671812274464 20.94480666385717 0.5642940770860791 20.944283709570676 0.5818245999214468 C 20.944320269601647 0.5906131611128259 20.942826096230636 0.5993409585441094 20.939868148641914 0.6076168687969344 C 20.946058321862235 0.5965867417942674 20.949243087597676 0.584124311788651 20.94910374936314 0.5714766823250352 C 20.94914081771183 0.5626858813762624 20.9476466409051 0.5539557826902209 20.94468818843438 0.5456776721351544 C 20.950879210837098 0.5567099038540687 20.954063994551415 0.569174728873181 20.953923789155606 0.5818245999214466 C 20.95396034918658 0.5906131611128258 20.952466175815566 0.5993409585441093 20.949508228226843 0.6076168687969343 C 20.95569840144717 0.5965867417942672 20.95888316718261 0.5841243117886508 20.958743828948073 0.571476682325035 C 20.95884721026919 0.5597976438095087 20.95615435046677 0.548263420278124 20.950890197677833 0.5378375234937032 C 20.960770354788234 0.5503392408472553 20.96598384251904 0.5658938853115926 20.96563345225982 0.5818245999214466 C 20.96563345225982 0.6139739282714709 20.946521825949837 0.6400358497227591 20.922940708195927 0.6400358497227591 C 20.899359590442018 0.6400358497227591 20.88025470544643 0.6139739282714709 20.88025470544643 0.5818245999214466 C 20.879736859226362 0.5642924306863761 20.886167570736994 0.5472658256429724 20.89814615385091 0.5344533836673853 Z M 20.399504610677376 0.19897187279740086 C 20.404252420173748 0.19545586461077252 20.41074045761168 0.19545586461077252 20.415488267108053 0.19897187279740086 C 20.42660962481643 0.2078610138821965 20.43289612538749 0.22146802822909273 20.43245615544041 0.23569855362166836 C 20.432471957833627 0.24128950708387892 20.431574796364416 0.24684553242619273 20.429800077568757 0.2521473607456077 C 20.43813037832818 0.23697777948352877 20.43823940719706 0.21862796729544598 20.430089954087745 0.20336046846858263 C 20.438010586790345 0.21225562989791416 20.442285836244647 0.22381035815278594 20.442062528453366 0.2357187775648535 C 20.442077258338458 0.24130910456178883 20.44118245955517 0.24686459827990742 20.439413191896108 0.25216758468879 C 20.447516592682934 0.23741154422868832 20.447859270075735 0.21961751667015963 20.440330010653835 0.2045604224309026 C 20.447551085707982 0.2133214277595918 20.451417694334335 0.22436683262424484 20.451237457345037 0.2357187775648535 C 20.451237457345037 0.25925270611799556 20.4358807431531 0.2783306258560053 20.41693764970299 0.2783306258560053 C 20.397994556252883 0.2783306258560053 20.38264458337534 0.25925270611799556 20.38264458337534 0.2357187775648535 C 20.382194542612584 0.22150431505324472 20.388435801502776 0.20790131536894177 20.399504610677376 0.19897187279740086 Z M 20.309467615617 0.19897187279740086 C 20.314539606105146 0.19546986512489342 20.321248911116495 0.19546986512489342 20.326320901604642 0.19897187279740086 C 20.33791380559281 0.2075692802908107 20.344598206570495 0.2212700389538764 20.3442393152667 0.23569855362166842 C 20.344253239292197 0.24130161746476864 20.34330465256416 0.24686544346574457 20.341434928478357 0.25214736074560645 C 20.35024114574664 0.23710612484890553 20.350356776985887 0.21851005199527634 20.341738287626136 0.20336046846858258 C 20.35002995122649 0.21207342244193692 20.354571053209114 0.22369244670451666 20.35438499343126 0.2357187775648535 C 20.3543978865426 0.24132118429257843 20.353451673826328 0.24688445905813305 20.351587347957313 0.2521675846887904 C 20.36013874105061 0.23753833711175726 20.36050352029973 0.21952385419361237 20.352551355915807 0.2045604224309026 C 20.360117142046843 0.21316178812561254 20.364222381148984 0.22426443009758368 20.364072262216958 0.2357187775648535 C 20.364072262216958 0.25925270611799556 20.347859401096848 0.2783306258560053 20.32785117997232 0.2783306258560053 C 20.307842958847793 0.2783306258560053 20.29163009772768 0.25925270611799556 20.29163009772768 0.2357187775648535 C 20.291274391605363 0.22129932021581708 20.297930761758405 0.2076021236494755 20.309487839560184 0.19897187279740086 Z M 20.21980813416275 0.19897187279740086 C 20.2248801246509 0.19546986512489342 20.231589429662243 0.19546986512489342 20.23666142015039 0.19897187279740086 C 20.24824997951587 0.20757223048684628 20.254931262824492 0.2212717530556765 20.254573092498056 0.23569855362166836 C 20.254585985609395 0.2413009603493933 20.253639772893123 0.24686423511494798 20.25177544702411 0.25214736074560534 C 20.26057541003823 0.23710377746377942 20.260688458098116 0.21850994088612966 20.25207206485749 0.20336046846858258 C 20.260368050834707 0.21207116317910804 20.264911933464 0.2236911081021798 20.264725511977012 0.2357187775648535 C 20.264739436002507 0.24132184140795376 20.26379084927447 0.2468856674089297 20.261921125188668 0.2521675846887916 C 20.270469459513205 0.23753805320518834 20.270836734744336 0.21952626374507103 20.262891874461555 0.2045604224309026 C 20.27045766059259 0.21316178812561254 20.274562899694732 0.22426443009758368 20.274412780762706 0.2357187775648535 C 20.274412780762706 0.25796511506853975 20.25988524824136 0.276261042336723 20.24138034022693 0.27815535168173383 L 20.23469969766143 0.27815535168173383 C 20.21634309856369 0.2760790268480565 20.20198409890222 0.25789096061019423 20.20198409890222 0.2357457428224337 C 20.201598574728287 0.22132628055451212 20.208233681946464 0.2076162389351367 20.21978116890517 0.1989718727974008 Z M 20.421481295605258 0.7978769849686107 L 20.26817706494728 0.7986589774384373 L 20.2689657987315 0.7727183996462601 L 20.422263288075083 0.7703589396079904 Z M 20.701717735007755 0.8754021005117599 C 20.701049235206472 0.8823936359910789 20.69542351030147 0.8878767931083223 20.68841712170631 0.8883656480934534 L 20.490121358775724 0.9020842228873933 C 20.48593387471079 0.9023761587097447 20.481828473167855 0.9008202445789821 20.47888633439788 0.8978262391052629 C 20.47594419562791 0.8948322336315438 20.474460254967084 0.8907002715399727 20.47482531641334 0.8865185279492083 L 20.475081486360352 0.8835860561873584 L 20.475121934246722 0.8835860561873584 L 20.673417697177307 0.8698607400790235 C 20.68042530221642 0.8693746016549596 20.68605249512608 0.8638900137354079 20.686718310478753 0.8568971924973299 L 20.696290976919734 0.7563774535526432 L 20.696439285836426 0.7563774535526432 C 20.70061469999813 0.7561489963058879 20.704682424338785 0.7577512088039043 20.7075804584258 0.7607657858166681 C 20.71047849251281 0.7637803628294317 20.711919165719415 0.7679080652063135 20.711526347452562 0.7720712334643346 Z M 20.86251156595864 0.7625255322809348 L 20.754023593398998 0.7719633724340137 L 20.754023593398998 0.750741714718376 L 20.86251156595864 0.7389444145270273 Z M 20.60149461389645 0.5555671803527017 C 20.640095380122546 0.5542998132464311 20.820081733156155 0.5385049136188139 20.821895146728426 0.5383431220733325 C 20.821895146728426 0.5383431220733325 20.80701032454414 0.5528976198522594 20.79517257646642 0.5539222996403078 C 20.746035135840856 0.5581693277091934 20.633381030985067 0.5683284885025435 20.60194628196092 0.5693599096049872 C 20.555727830468413 0.57088344665827 20.373577515513986 0.5712542189499981 20.277729507445073 0.5722451921660714 C 20.256127518276926 0.5720687905098459 20.23471700127356 0.5681761765440619 20.21443530658989 0.56073776849371 C 20.21765091355633 0.5606838379785496 20.539319471230844 0.5575895746712187 20.60146764863887 0.5555402150951217 Z M 20.60149461389645 0.5972352446285456 C 20.640095380122546 0.59596113620788 20.820081733156155 0.5801662365802628 20.821895146728426 0.5800111863491764 C 20.821895146728426 0.5800111863491764 20.80701032454414 0.5945656841281033 20.79517257646642 0.5955836226017568 C 20.746035135840856 0.5998306506706422 20.633381030985067 0.6099898114639924 20.60194628196092 0.6110279738808311 C 20.555727830468413 0.6125515109341138 20.373577515513986 0.612922283225842 20.277729507445073 0.6139132564419152 C 20.256126299897854 0.6137244651071425 20.234716370223467 0.6098228366405454 20.21443530658989 0.602378867511974 C 20.21765091355633 0.6023519022543936 20.539319471230844 0.5992778628902479 20.60146764863887 0.5972082793709655 Z M 20.60149461389645 0.6406290853895239 C 20.640095380122546 0.6393549769688583 20.820081733156155 0.6235600773412411 20.821895146728426 0.6234050271101547 C 20.821895146728426 0.6234050271101547 20.80701032454414 0.6379527835746865 20.79517257646642 0.6389774633627351 C 20.746035135840856 0.6432244914316206 20.633381030985067 0.6533836522249707 20.60194628196092 0.6544150733274143 C 20.555727830468413 0.6559386103806971 20.373577515513986 0.6563093826724253 20.277729507445073 0.6573070972028937 C 20.256127478885972 0.6571247868104598 20.234717584854703 0.653230005789541 20.21443530658989 0.6457929322161374 C 20.21765091355633 0.6457390017009769 20.539319471230844 0.642651479708041 20.60146764863887 0.640602120131944 Z M 20.587061459776635 0.6852161387984274 C 20.597409377373047 0.6852161387984274 20.838883259003968 0.6622147740824947 20.838883259003968 0.6622147740824947 L 20.84157978476199 0.5289592124354139 C 20.860172329863556 0.5293165020983519 20.853613030957167 0.6274700396903737 20.853040019233585 0.6662528214051335 C 20.852905192945684 0.6750974258914476 20.853040019233585 0.6737626456412265 20.84424260394804 0.6745985686262134 C 20.790932289711932 0.6796545544225057 20.609644863000074 0.6961370681184187 20.6008811542865 0.6961370681184187 C 20.59053323669009 0.6961370681184187 20.275747561012928 0.709073650442532 20.203966045334365 0.6869823631699321 C 20.278956426664976 0.689213738234696 20.578048322430444 0.6851891735408473 20.587034494519056 0.6851891735408473 Z M 20.089410889819174 0.5750091310680446 C 20.09982014732613 0.5669085656253438 20.114400274200655 0.5669085656253438 20.124809531707612 0.5750091310680446 C 20.13915866056227 0.5865151631409692 20.147417380622564 0.6039822814864322 20.147204178127993 0.6223736060077111 C 20.14722654969315 0.6312702292867839 20.14533917236473 0.6400680283560587 20.141669559009653 0.6481726161975863 C 20.149259055337538 0.6376537615750396 20.15331211458722 0.6249965084027561 20.15324439582596 0.6120256884112996 C 20.153262974738574 0.6031287479038132 20.15137336932573 0.5943312784209095 20.147703035393224 0.5862266782214169 C 20.155290428992224 0.5967465941276342 20.159343262889784 0.6094031435503088 20.159277872209536 0.6223736060077112 C 20.159300243774695 0.6312702292867839 20.157412866446276 0.6400680283560587 20.1537432530912 0.6481726161975863 C 20.16852248291346 0.6274504661853171 20.16920582038267 0.5998206765612534 20.15546902957633 0.578393270894363 C 20.16740869490358 0.5898918722307696 20.174089066242452 0.6057979826741398 20.173940231018786 0.6223736060077112 C 20.173940231018786 0.6545229343577355 20.15000182360194 0.6805915971234187 20.1204681252372 0.6805915971234187 C 20.090934426872455 0.6805915971234187 20.067002760770006 0.6545229343577353 20.067002760770006 0.6223736060077112 C 20.06679282518638 0.6039799927595053 20.075056711822736 0.5865124634252554 20.089410889819174 0.5750091310680444 Z M 20.070043093562177 0.7743093498434935 C 20.06131939333146 0.7743059345271868 20.052935113419615 0.7776896162442754 20.046657473925723 0.7837471899965727 C 20.057170583394313 0.7695942667917451 20.07557295067423 0.7637758977169425 20.092311413619072 0.76931255412532 C 20.109049876563912 0.7748492105336974 20.120352980037694 0.7904933913066422 20.120352980037694 0.8081237828490967 C 20.120352980037694 0.8257541743915512 20.109049876563912 0.8413983551644961 20.092311413619072 0.8469350115728734 C 20.07557295067423 0.8524716679812507 20.057170583394313 0.8466532989064482 20.046657473925723 0.8325003757016208 C 20.0576340050802 0.843027607687655 20.074290469144202 0.8449256094610955 20.087354003615086 0.8371377396239087 C 20.10041753808597 0.829349869786722 20.106669407359064 0.8137949883522804 20.10262911737926 0.7991326929538094 C 20.098588827399453 0.7844703975553385 20.085251868724082 0.7743133438910681 20.070043093562177 0.7743160911578886 Z M 19.953148701951896 0.5750091310680446 C 19.963557959458857 0.5669085656253438 19.978138086333377 0.5669085656253438 19.988547343840338 0.5750091310680446 C 20.002896472694992 0.5865151631409692 20.01115519275529 0.6039822814864322 20.010941990260715 0.6223736060077111 C 20.010964361825874 0.6312702292867839 20.00907698449745 0.6400680283560587 20.005407371142375 0.6481726161975863 C 20.01299686747026 0.6376537615750396 20.017049926719945 0.6249965084027561 20.016982207958687 0.6120256884112996 C 20.016999772315973 0.6031295695184404 20.015112611109426 0.5943327778772127 20.011447588840344 0.5862266782214187 C 20.019030065146186 0.5967486830947865 20.02308024677249 0.6094043205541312 20.023015684342262 0.6223736060077112 C 20.02303805590742 0.6312702292867839 20.021150678578998 0.6400680283560587 20.017481065223922 0.6481726161975863 C 20.032256827106036 0.6274500063985657 20.032942749468283 0.5998236158474836 20.01921358302345 0.578393270894363 C 20.03114875286692 0.5898944047837874 20.037826242065783 0.6057994575524589 20.03767804315151 0.6223736060077112 C 20.03767804315151 0.6545229343577355 20.013739635734666 0.6805915971234187 19.984212678684315 0.6805915971234187 C 19.954685721633968 0.6805915971234187 19.930740572902728 0.6545229343577353 19.930740572902728 0.6223736060077112 C 19.930533673217727 0.6039806566250168 19.938796962658788 0.5865143895934603 19.953148701951896 0.5750091310680442 Z M 19.649203059821986 0.9491520799936778 C 19.605445188083674 0.9514441268879968 19.565570313436915 0.8691933499539132 19.560143555348894 0.7654377800995993 C 19.556186403798996 0.6898069739014611 19.571603789820493 0.6236409731139819 19.597220784521706 0.5924354287792657 C 19.577940625351843 0.6273082481448927 19.567080367861408 0.6851285017112918 19.57047124900212 0.7499192743621794 C 19.574300315578515 0.8230490529197517 19.59523883808956 0.8854938481611596 19.6225950919047 0.9151825967569882 C 19.60580921906101 0.8796626112094359 19.593951247040103 0.8290825293033273 19.591167084194947 0.7724757123280384 C 19.58716274344428 0.6910541170645466 19.60303853884464 0.619939991511096 19.62920832132625 0.5872715819526525 C 19.609334926489623 0.6219421618864278 19.598070190135484 0.6806185623809992 19.601521743105753 0.7464677213919105 C 19.60534406836775 0.819604241263878 19.62628933219319 0.8820490365052859 19.653638844693933 0.9117377851011144 C 19.633400627228617 0.8668539878878769 19.622701102586237 0.8182573483943912 19.622217578298574 0.7690241593577696 C 19.619406450195836 0.5901298992561566 19.710245661669223 0.567135275854619 19.718618374147884 0.757152704708075 C 19.723168761364544 0.8609082745623887 19.692967672874694 0.946833067841778 19.649203059821986 0.9491183734217021 Z" fill="#fffcf7" transform="matrix(1,0,0,1,0,0)" fill-rule="nonzero"></path></g></g></g><defs><clipPath id="SvgjsClipPath1001"><path d=" M 18.734716796875 -0.026990244410496356 h 2.4373424434758446 v 1.159937520070993 h -2.4373424434758446 Z"></path></clipPath><clipPath id="SvgjsClipPath1000b48068b6-7fa5-4fa9-af8f-a10416d68097"><path d=" M 18.734716796875 -0.026990244410496248 L 21.172059240350844 -0.026990244410496248 L 21.172059240350844 1.1329472756604966 L 18.734716796875 1.1329472756604966 Z"></path></clipPath></defs></svg>